<svg width="70" height="26" viewBox="0 0 70 26" fill="none" xmlns="http://www.w3.org/2000/svg">
<path d="M12.7355 15.9152C12.3871 11.7 12.1162 7.16969 11.8839 3.46666C11.8065 2.40303 11.613 1.96969 10.7227 1.49696C9.60021 0.906053 8.09064 0.354544 7.47133 0.354544C6.89072 0.354544 6.50366 0.630297 6.23271 1.37878C4.33607 7.01212 1.00729 18.1606 0.155734 22.1788C-0.192628 23.8727 0.03961 24.2667 0.891162 24.8182C1.31694 25.0939 2.01365 25.4485 2.55555 25.6455C3.4071 25.9212 3.79419 25.6849 4.02643 24.8576C5.5747 19.303 7.23908 13.7485 8.20675 10.6364C8.51641 15.7182 8.98091 19.6576 9.63892 22.6121C9.90987 23.6758 10.2969 24.2273 10.9937 24.6212C11.613 24.9758 12.4645 25.3303 13.1612 25.5273C14.0902 25.7636 14.7095 25.5667 14.9418 24.6212C16.5287 18.5545 19.3931 9.17879 21.1349 3.54545C21.5219 2.28484 21.251 1.81212 20.3994 1.2606C19.8962 0.945451 19.2382 0.630301 18.6576 0.433332C17.8061 0.157573 17.3029 0.315145 16.9545 1.29999C15.6385 5.08181 13.7418 11.7 12.7355 15.9152Z" fill="black"/>
<path d="M23.7131 5.23939C22.01 10.4394 19.8037 17.3333 19.0296 20.8394C18.7973 21.9424 19.0683 22.8091 19.4941 23.4C20.036 24.1485 20.5391 24.6606 21.0423 25.0939C21.739 25.6849 22.3197 25.8424 23.4809 25.5273C25.571 24.9364 28.0483 24.3849 30.2546 23.8727C31.1061 23.6758 31.2996 23.4 31.1835 22.5333C31.1061 21.7454 30.9126 21.0364 30.6029 20.2091C30.332 19.4606 29.8288 19.2636 28.9772 19.3424C27.3128 19.4606 25.9194 19.6576 24.3324 19.9727C24.6808 18.8303 25.1065 17.6091 25.5323 16.3879C27.4677 15.8758 29.674 15.4424 31.648 15.0485C32.4996 14.8515 32.7318 14.6152 32.6157 13.7485C32.5383 12.9606 32.3448 12.2515 32.0738 11.4636C31.8029 10.7151 31.3384 10.5182 30.4868 10.5576C29.4417 10.597 28.4741 10.6758 27.5064 10.8333C28.2031 8.90303 28.8998 7.05152 29.4804 5.43636C31.5706 5.08182 33.7769 4.80606 35.5574 4.60909C36.409 4.5303 36.6412 4.21515 36.6025 3.34848C36.5251 2.5606 36.409 1.96969 36.138 1.14242C35.9445 0.393935 35.4413 -2.01262e-06 34.6284 0.0393938C31.0674 0.157574 26.1129 0.748479 23.4422 1.53636C22.8229 1.69393 22.6293 1.85152 22.7841 2.63939C22.939 3.34849 23.2873 4.49091 23.7131 5.23939Z" fill="black"/>
<path d="M40.0465 12.3697C37.4918 15.5606 34.3953 19.6182 33.0793 21.7455C32.6148 22.4545 32.5761 22.7697 32.5761 23.0849C32.5761 23.5576 32.9631 24.1485 33.8147 25.1333C34.2792 25.6849 34.7437 26 35.1307 26C35.4404 26 35.6726 25.8818 36.021 25.4485C37.2983 23.7545 39.6594 20.5243 41.5174 18.1212C42.0593 20.3667 42.5625 22.2182 42.9108 23.3212C43.5688 25.4091 43.9559 25.803 46.2783 25.803C47.4782 25.803 48.4072 25.7242 48.4072 24.9758C48.4072 24.7788 48.3685 24.5818 48.2911 24.2667C47.5944 21.4697 46.588 17.3727 45.659 13.4727C48.3298 10.1243 50.9231 6.97273 52.7424 4.76667C53.1294 4.29394 53.3617 3.82121 53.3617 3.26969C53.3617 2.44242 52.123 0.118181 50.807 0.118181C50.1877 0.118181 49.9168 0.354538 46.9363 4.17575C46.0848 5.27878 45.1171 6.46061 44.2268 7.60303C43.9946 6.65758 43.6463 5.08182 43.2205 3.2303C42.7173 0.984846 42.3302 0.551513 39.7756 0.551513C38.0725 0.551513 37.5693 0.748481 37.5693 1.45757C37.5693 1.69394 37.608 1.89091 37.8015 2.79697C38.1112 4.29394 39.1175 8.46969 40.0465 12.3697Z" fill="black"/>
<path d="M69.0682 4.37273C69.9972 4.29394 70.0746 4.05757 69.9585 3.2303C69.8423 2.48182 69.494 1.41818 68.9908 0.6303C68.7198 0.236361 68.4102 0 67.5199 0C63.9202 0.0787892 58.1916 0.66969 54.5531 1.49696C53.9338 1.65454 53.6629 1.85152 53.8177 2.63939C53.9725 3.38788 54.437 4.68788 54.9015 5.47576C55.3273 6.18485 55.753 6.26363 56.5659 6.10606C57.1465 5.98788 58.0755 5.79091 59.0044 5.63333C57.3787 10.6364 55.1724 18.3576 54.3596 22.4939C54.1274 23.597 54.2048 24.1879 54.9015 24.7C55.5982 25.2121 56.4885 25.6061 57.3013 25.8424C58.1141 26.0788 58.3851 25.9212 58.6174 25.0939C60.3205 18.9091 62.759 10.9515 64.8492 4.80606C66.2039 4.64849 67.8296 4.49091 69.0682 4.37273Z" fill="black"/>
</svg>
