<svg width="128" height="27" viewBox="0 0 128 27" fill="none" xmlns="http://www.w3.org/2000/svg">
<path d="M6.43572 18.1887C10.5352 16.9784 15.2595 14.4406 17.6021 11.8247C19.0467 10.263 20.1789 8.54506 19.9056 6.35865C19.6323 4.13319 18.7734 2.64956 17.8363 1.47826C15.4937 -1.41092 8.11458 0.463149 4.28836 2.61052C3.46846 3.07903 3.39037 3.54754 3.7808 4.52362C4.01506 5.18735 4.40549 5.92917 4.67879 6.47578C2.92185 12.098 0.852569 18.9305 0.11075 22.5225C-0.123508 23.6157 -0.00638129 24.1623 0.657351 24.6699C1.28204 25.1384 2.25811 25.5678 2.99993 25.7631C3.81983 25.9973 4.09315 25.8021 4.36645 24.9822C4.95209 22.8348 5.6939 20.5313 6.43572 18.1887ZM8.27076 12.6055C9.09066 10.2239 9.87152 7.99846 10.5743 6.12439C13.034 4.99214 15.2985 5.03118 15.4156 5.89013C15.6889 7.45186 13.0731 10.8486 8.27076 12.6055Z" fill="black"/>
<path d="M23.5543 17.603C25.0379 20.1799 27.2634 23.1472 28.747 24.4746C29.8012 25.4898 30.7382 25.4507 31.48 25.2165C32.1438 25.0212 32.4951 24.9432 33.1589 24.3966C33.7055 23.928 33.9007 23.5376 33.276 22.8348C31.7924 21.0779 29.7231 18.2277 28.4737 16.1194C31.0115 14.87 33.237 13.3474 34.7987 11.8247C36.3214 10.341 37.3365 8.54506 37.0632 6.35865C36.7899 4.28936 35.97 2.64956 34.9939 1.47826C32.6123 -1.37188 25.2722 0.463149 21.446 2.61052C20.6261 3.07903 20.587 3.54754 20.9384 4.52362C21.1727 5.14831 21.5631 5.89013 21.8754 6.47578C20.0795 12.098 18.0102 18.9305 17.2684 22.5225C17.0731 23.6157 17.1512 24.1623 17.854 24.6699C18.4006 25.0603 19.1424 25.3336 19.9623 25.5678C20.7822 25.7631 21.0555 25.6069 21.2898 24.787C21.9535 22.5225 22.7344 20.0628 23.5543 17.603ZM27.7319 6.00726C30.2307 4.79693 32.4561 4.99214 32.6513 5.89013C32.9637 7.13951 29.9574 10.6924 25.3503 12.4494C26.2092 10.0677 26.9901 7.84229 27.7319 6.00726Z" fill="black"/>
<path d="M40.0216 5.26545C38.3037 10.4191 36.0783 17.2517 35.2974 20.7265C35.0632 21.8197 35.3365 22.6787 35.7659 23.2643C36.3125 24.0061 36.8201 24.5137 37.3276 24.9432C38.0304 25.5288 38.6161 25.685 39.7874 25.3726C41.8957 24.787 44.3944 24.2404 46.6199 23.7328C47.4788 23.5376 47.6741 23.2643 47.5569 22.4053C47.4788 21.6245 47.2836 20.9217 46.9713 20.1018C46.698 19.36 46.1904 19.1648 45.3315 19.2429C43.6526 19.36 42.2471 19.5552 40.6463 19.8676C40.9977 18.7353 41.4272 17.525 41.8566 16.3146C43.8088 15.8071 46.0342 15.3776 48.0254 14.9872C48.8844 14.792 49.1187 14.5577 49.0015 13.6988C48.9234 12.9179 48.7282 12.2151 48.4549 11.4342C48.1816 10.6924 47.7131 10.4972 46.8542 10.5363C45.8 10.5753 44.8239 10.6534 43.8478 10.8096C44.5506 8.89645 45.2534 7.06143 45.839 5.46066C47.9474 5.10927 50.1728 4.83598 51.9688 4.64076C52.8277 4.56267 53.062 4.25032 53.023 3.39138C52.9449 2.61052 52.8277 2.02487 52.5544 1.20496C52.3592 0.463145 51.8517 0.0727166 51.0318 0.111762C47.4398 0.228889 42.4423 0.814531 39.7483 1.59539C39.1236 1.75156 38.9284 1.90774 39.0846 2.6886C39.2408 3.39138 39.5921 4.52363 40.0216 5.26545Z" fill="black"/>
<path d="M70.4761 3.97702C70.8275 3.03999 70.8666 2.41529 70.32 1.75156C69.8124 1.16592 69.0315 0.658365 68.3678 0.385062C67.3917 -0.00536852 66.8451 0.189844 66.5328 0.89262C64.0731 6.20248 60.8325 13.6207 58.3337 18.9696C58.4509 13.0741 58.8803 6.47578 58.8803 3.07903C58.8803 1.08784 57.0063 0.502191 55.2103 0.502191C54.3513 0.502191 54.1561 0.81453 54.078 1.71252C53.6486 7.02238 53.4143 12.2151 53.3753 16.7831C53.3753 18.1497 53.4143 19.7504 53.4924 21.156C53.5705 22.4444 54.039 23.6157 55.0932 24.3185C55.835 24.826 56.9282 25.3726 57.8262 25.724C59.2708 26.2706 59.9735 26.1144 60.5982 24.9041C63.4484 19.5552 68.7582 8.62315 70.4761 3.97702Z" fill="black"/>
<path d="M77.6604 2.02486C76.9576 1.47826 75.7472 0.814536 74.8883 0.541233C74.0294 0.267933 73.5218 0.424099 73.1704 1.36113C71.4525 6.24152 68.1339 17.8763 67.1968 22.3273C66.9626 23.4595 67.0797 23.9671 67.7825 24.4746C68.4462 24.9432 69.3832 25.3726 70.2031 25.6069C71.023 25.8411 71.3354 25.685 71.5697 24.826C73.1704 19.1257 76.411 8.74028 78.207 3.89893C78.5193 3.00094 78.4412 2.64955 77.6604 2.02486Z" fill="black"/>
<path d="M92.5044 2.10296C91.6064 1.20497 89.9275 0.502191 88.2877 0.267933C87.0383 0.0727156 85.2814 0.54123 84.1491 1.47826C78.7222 5.96822 75.3254 15.8852 77.0043 21.4683C77.3556 22.6787 78.2146 23.7328 78.9955 24.2794C80.0106 24.9822 81.4942 25.4507 82.7436 25.6069C84.6567 25.8411 86.2575 25.4507 87.7411 24.0061C92.153 19.6723 94.3394 11.1609 94.0661 5.85109C93.988 4.36745 93.5585 3.15712 92.5044 2.10296ZM88.561 4.6798C89.8104 5.07023 88.9514 10.4191 87.7411 14.0111C86.1794 18.6572 83.9539 22.054 82.5484 21.4683C81.1038 20.8827 81.8456 15.9242 83.2121 12.2932C84.5786 8.62314 87.3507 4.28937 88.561 4.6798Z" fill="black"/>
<path d="M94.4605 21.7026C94.8509 22.8739 95.5146 23.7719 96.2564 24.3185C97.1935 25.0212 98.4429 25.5678 99.9265 25.6459C101.488 25.724 102.66 25.5678 103.948 24.6699C107.657 22.1321 110.156 14.2844 113.006 3.66468C113.24 2.76669 113.24 2.45434 112.459 1.82965C111.757 1.28305 110.702 0.697407 109.843 0.424105C108.985 0.150804 108.438 0.306973 108.165 1.28305C106.408 7.7642 102.386 22.3273 99.7313 21.4293C97.5058 20.6875 101.488 10.302 103.636 4.79693C104.065 3.74277 103.948 2.92285 103.167 2.18104C102.542 1.55635 101.644 1.08784 100.824 0.775491C99.9655 0.463148 99.458 0.580273 99.1066 1.51731C96.4517 8.3108 92.9378 17.2907 94.4605 21.7026Z" fill="black"/>
<path d="M110.436 18.8524C109.694 19.2429 109.538 19.8285 110.67 21.4293C112.856 24.5527 115.355 25.7631 117.932 25.7631C121.134 25.7631 123.281 23.8499 124.608 21.2731C126.443 17.7202 121.407 15.729 119.103 12.6836C116.995 9.83347 122.032 4.6798 122.851 5.14832C123.32 5.38258 122.149 8.34985 121.836 9.7554C121.485 11.3171 122.383 12.5275 124.374 13.3864C125.077 13.6988 125.467 13.5426 125.858 12.8007C126.678 11.2 127.654 8.15463 127.927 6.35865C128.044 5.30449 128.161 3.97703 127.068 2.76669C126.326 1.90774 124.921 1.00975 123.671 0.541233C122.032 -0.0444121 120.548 0.541231 119.65 1.08783C117.307 2.57147 114.887 5.49969 113.793 8.03749C112.505 10.8876 113.208 13.4645 114.652 15.1433C116.722 17.525 120.782 19.9847 119.65 20.9217C118.674 21.7807 116.448 21.1169 114.145 19.0867C113.325 18.3839 111.646 18.2278 110.436 18.8524Z" fill="black"/>
</svg>
